<svg width="299" height="299" fill="none" xmlns="http://www.w3.org/2000/svg"><path d="M123.34 80.007c.232.08.433.228.575.426a1.153 1.153 0 01-.587 1.772 4.284 4.284 0 01-3.846.007 1.172 1.172 0 01-.575-.425 1.153 1.153 0 01.587-1.773 4.285 4.285 0 013.846-.007z" fill="#fff" opacity=".5"/><path d="M149.5 299A149.498 149.498 0 0119.004 76.555a149.502 149.502 0 01257.841-5.372l-11.799 7.257A135.652 135.652 0 0079.647 33.22 135.648 135.648 0 00149.5 285.149V299z" fill="url(#paint0_radial)"/><path fill-rule="evenodd" clip-rule="evenodd" d="M149.833 270.365c66.936 0 121.198-54.262 121.198-121.198 0-66.936-54.262-121.198-121.198-121.198-66.936 0-121.198 54.262-121.198 121.198 0 66.936 54.262 121.198 121.198 121.198zm0-48.612c40.088 0 72.586-32.498 72.586-72.586s-32.498-72.586-72.586-72.586-72.586 32.498-72.586 72.586 32.498 72.586 72.586 72.586z" fill="#EDEDED"/><path fill-rule="evenodd" clip-rule="evenodd" d="M89.781 254.442a121.2 121.2 0 0060.052 15.923v-48.612c-40.088 0-72.586-32.498-72.586-72.586s32.498-72.586 72.586-72.586c25.783 0 48.426 13.443 61.303 33.702l41.043-26.033A121.198 121.198 0 1089.781 254.442z" fill="url(#paint1_radial)"/><circle cx="150.272" cy="149.368" r="72.586" fill="#fff"/><defs><radialGradient id="paint0_radial" cx="0" cy="0" r="1" gradientUnits="userSpaceOnUse" gradientTransform="rotate(-175.84 132.78 34.519) scale(312.142)"><stop stop-color="#E95624"/><stop offset="1" stop-color="#461182"/></radialGradient><radialGradient id="paint1_radial" cx="0" cy="0" r="1" gradientUnits="userSpaceOnUse" gradientTransform="rotate(-144.951 130.545 13.468) scale(210.153 148.154)"><stop stop-color="#E95624"/><stop offset="1" stop-color="#410F84"/></radialGradient></defs></svg>